<?xml version="1.0" ?><svg enable-background="new 0 0 32 32" version="1.1" viewBox="0 0 32 32" xml:space="preserve" xmlns="http://www.w3.org/2000/svg" xmlns:xlink="http://www.w3.org/1999/xlink"><g id="Layer_4_copy"><linearGradient gradientUnits="userSpaceOnUse" id="SVGID_1_" x1="16" x2="16" y1="32" y2="0"><stop offset="0" style="stop-color:#FF2D76"/><stop offset="1" style="stop-color:#FB0000"/></linearGradient><path d="M28.722,12.722C28.722,5.696,23.026,0,16,0S3.278,5.696,3.278,12.722   c0,5.666,3.706,10.462,8.825,12.108L16,32l3.898-7.169C25.016,23.184,28.722,18.388,28.722,12.722z" fill="url(#SVGID_1_)"/></g><g id="Official_copy_2"><g><path d="M14.959,12.077c0,0,1.522-0.116,1.522-1.937c0-1.82-1.032-2.717-2.61-2.717L8.465,7.415v10.056h5.531    c0,0,2.765,0.087,2.765-3.017C16.762,14.454,16.965,12.077,14.959,12.077z M10.477,8.923h2.765c0,0,0.946,0.016,0.946,1.242    c0,1.272-0.946,1.272-0.946,1.272h-2.765V8.923z M13.494,15.963h-3.017v-3.017h3.017c0,0,1.508,0.016,1.508,1.508    S13.711,15.963,13.494,15.963z" fill="#FFFFFF"/><path d="M21.036,9.929c-3.778,0-3.771,3.771-3.771,3.771s-0.251,3.771,3.771,3.771c0,0,3.52,0,3.52-3.017h-2.011    c0,0,0,1.508-1.508,1.508c0,0-1.508,0-1.508-2.011c0,0,4.023,0,5.028,0C24.556,12.946,24.556,9.929,21.036,9.929z M19.527,12.946    c0,0-0.033-1.508,1.508-1.508c1.541,0,1.508,1.508,1.508,1.508H19.527z" fill="#FFFFFF"/><rect fill="#FFFFFF" height="1.006" width="4.023" x="19.025" y="8.421"/></g></g></svg>