<?xml version="1.0" encoding="utf-8"?>
<!-- Generator: Adobe Illustrator 16.0.0, SVG Export Plug-In . SVG Version: 6.00 Build 0)  -->
<!DOCTYPE svg PUBLIC "-//W3C//DTD SVG 1.1//EN" "http://www.w3.org/Graphics/SVG/1.1/DTD/svg11.dtd">
<svg version="1.1" id="Layer_1" xmlns="http://www.w3.org/2000/svg" xmlns:xlink="http://www.w3.org/1999/xlink" x="0px" y="0px"
	 width="434.92px" height="401px" viewBox="0 0 434.92 401" style="enable-background:new 0 0 434.92 401;" xml:space="preserve">
<style type="text/css">
<![CDATA[
	.st0{fill:#488FCD;}
	.st1{fill:#E14658;}
	.st2{fill:#882330;}
	.st3{enable-background:new    ;}
	.st4{display:inline;fill:#F47D2B;}
	.st5{display:inline;fill:#F7EC20;}
	.st6{fill:#F7EC20;}
	.st7{display:inline;fill:#CC4458;}
	.st8{fill:#9A2B39;}
	.st9{clip-path:url(#SVGID_2_);enable-background:new    ;}
	.st10{display:inline;enable-background:new    ;}
	.st11{display:inline;fill:#A83E97;}
	.st12{display:none;}
	.st13{fill:#A83E97;}
	.st14{display:inline;fill:#488FCD;}
	.st15{clip-path:url(#SVGID_4_);enable-background:new    ;}
	.st16{display:inline;fill:#E14658;}
]]>
</style>
<g class="st12">
	<polygon class="st14" points="-251.945,33.786 -251.945,23.325 -251.945,17.658 -251.945,-3.444 -224.731,23.325 -224.731,33.786 	
		"/>
	<polygon class="st5" points="-170.745,82.575 -197.958,102.575 -197.958,23.77 -170.746,23.77 	"/>
	<polygon class="st16" points="-197.958,109.789 -224.731,109.789 -251.945,82.575 -224.951,82.575 -170.745,82.575 	"/>
	<polygon class="st16" points="-170.745,61 -224.731,61 -251.945,33.786 -197.959,33.786 -184.351,53.186 	"/>
	<polygon class="st14" points="-224.731,61 -251.945,33.786 -224.731,33.786 	"/>
	<polygon class="st5" points="-224.731,109.789 -251.945,82.575 -224.731,82.575 	"/>
	<polygon class="st11" points="-197.958,109.789 -197.958,82.575 -170.745,82.575 	"/>
	<polygon class="st11" points="-197.958,33.782 -170.746,61 -197.958,61 	"/>
	<rect x="-197.958" y="61" class="st14" width="27.213" height="21.575"/>
	<polygon class="st5" points="-197.959,-3.444 -170.746,23.77 -197.959,23.77 	"/>
</g>
<g class="st12">
	<polygon class="st5" points="913.405,6.309 913.397,-162.187 835.421,-240.165 835.421,-162.187 835.426,-162.187 835.4,84.281 	
		"/>
	<polygon class="st14" points="680.736,-133.488 680.736,-163.458 680.736,-179.706 680.736,-240.165 758.711,-163.458 
		758.711,-133.488 	"/>
	<polygon class="st16" points="835.483,84.199 758.732,84.199 758.732,6.24 835.482,6.283 	"/>
	<polygon class="st16" points="913.405,-55.513 758.711,-55.513 680.736,-133.488 835.421,-133.488 	"/>
	<polygon class="st11" points="758.711,-55.513 680.736,-133.488 758.711,-133.488 	"/>
	<polygon class="st5" points="758.711,84.284 680.736,6.309 758.711,6.309 	"/>
	<polygon class="st11" points="835.426,84.284 835.426,6.309 913.405,6.309 	"/>
	<polygon class="st4" points="835.426,-133.498 913.397,-55.513 835.426,-55.513 	"/>
	<rect x="835.426" y="-55.513" class="st5" width="77.979" height="61.822"/>
</g>
<g class="st12">
	<g class="st10">
		<defs>
			<path id="SVGID_1_" class="st3" d="M3.979,602.56l-4.56-2.039c0.044,0.02,0.089,0.038,0.134,0.057l4.559,2.04
				C4.067,602.599,4.023,602.579,3.979,602.56z"/>
		</defs>
		<clipPath id="SVGID_2_">
			<use xlink:href="#SVGID_1_"  style="overflow:visible;"/>
		</clipPath>
		<g class="st9">
			<path class="st2" d="M-0.447,600.577l4.559,2.04c-0.045-0.019-0.089-0.038-0.133-0.058l-4.56-2.039
				C-0.536,600.54-0.492,600.559-0.447,600.577"/>
		</g>
	</g>
	<g class="st10">
		<defs>
			<path id="SVGID_3_" class="st3" d="M5.357,600.997l-4.56-2.039c-0.144-0.064-0.287-0.131-0.429-0.2l4.56,2.04
				C5.07,600.866,5.213,600.933,5.357,600.997z"/>
		</defs>
		<clipPath id="SVGID_4_">
			<use xlink:href="#SVGID_3_"  style="overflow:visible;"/>
		</clipPath>
		<g class="st15">
			<path class="st8" d="M0.369,598.758l4.56,2.04c0.142,0.068,0.285,0.135,0.429,0.199l-4.56-2.039
				C0.654,598.894,0.511,598.827,0.369,598.758"/>
		</g>
	</g>
	<polygon class="st14" points="-254.22,292.82 -254.22,274.885 -254.22,265.16 -254.22,228.973 -207.549,274.885 -207.549,292.82 	
		"/>
	<polygon class="st16" points="-171.643,423.168 -197.113,423.358 -207.924,376.496 -114.956,376.496 -125.257,387.124 	"/>
	<polygon class="st16" points="-114.956,339.492 -207.549,339.492 -254.22,292.82 -161.628,292.82 	"/>
	<polygon class="st11" points="-207.549,339.492 -254.22,292.82 -207.549,292.82 	"/>
	<polygon class="st5" points="-197.113,423.358 -243.785,387.66 -243.784,376.688 -197.113,376.688 	"/>
	<rect x="-171.828" y="339.492" class="st5" width="46.672" height="37.004"/>
	<polygon class="st16" points="-254.22,228.973 -243.975,228.973 -197.113,274.885 -207.549,274.885 	"/>
	<rect x="-207.549" y="274.885" class="st5" width="10.437" height="64.607"/>
	<polygon class="st5" points="-171.643,292.82 -171.643,274.885 -171.643,265.16 -171.643,228.973 -124.973,274.885 
		-124.973,292.82 	"/>
	<polygon class="st16" points="-171.83,228.973 -161.586,228.973 -114.723,274.885 -125.159,274.885 	"/>
	<polygon class="st14" points="-114.485,378.57 -125.257,387.124 -124.921,274.885 -114.485,274.885 	"/>
	<polygon class="st5" points="-124.921,329.16 -171.828,292.82 -125.156,292.82 	"/>
	<rect x="-197.113" y="329.16" class="st7" width="72.192" height="10.438"/>
	<polygon class="st11" points="-125.156,376.498 -171.828,412.923 -171.828,376.498 	"/>
	<rect x="-197.113" y="412.923" class="st14" width="25.285" height="10.436"/>
	<polygon class="st16" points="-243.785,376.688 -197.113,413.113 -197.113,376.688 	"/>
	<rect x="-197.113" y="376.688" class="st16" width="25.47" height="36.234"/>
</g>
<polyline class="st13" points="103.054,67.352 331.874,67.352 432.097,4.506 103.516,4.506 "/>
<polyline class="st6" points="103.509,4.391 2.63,67.33 103.54,67.264 "/>
<polygon class="st1" points="331.874,67.352 103.054,67.352 3.291,67.352 2.699,67.352 2.699,396.566 331.909,396.566 
	331.909,333.725 331.909,67.352 "/>
<polygon class="st0" points="432.29,333.674 432.228,333.674 432.272,333.65 432.272,4.506 432.097,4.506 331.874,67.439 
	331.909,67.439 331.909,396.609 "/>
<g class="st12">
	<polyline class="st11" points="626.384,47.036 698.075,47.036 729.479,27.345 626.528,27.345 	"/>
	<polyline class="st5" points="626.524,27.309 594.917,47.029 626.534,47.008 	"/>
	<polygon class="st14" points="698.075,47.036 626.384,47.036 595.124,47.036 594.938,47.036 594.938,150.184 698.087,150.184 
		698.087,130.494 698.087,47.036 	"/>
	<polygon class="st16" points="729.54,130.48 729.521,130.48 729.532,130.473 729.532,27.345 729.479,27.345 698.075,47.063 
		698.087,47.063 698.087,130.641 698.101,130.641 698.087,150.197 	"/>
</g>
<g class="st12">
	<polyline class="st11" points="622.389,270.529 694.08,270.529 725.484,250.84 622.533,250.84 	"/>
	<polyline class="st5" points="622.529,250.803 590.922,270.523 622.539,270.502 	"/>
	<polygon class="st16" points="694.08,270.529 622.389,270.529 591.129,270.529 590.943,270.529 590.943,373.678 694.092,373.678 
		694.092,353.988 694.092,270.529 	"/>
	<polygon class="st14" points="725.545,353.975 725.525,353.975 725.537,353.967 725.537,250.84 725.484,250.84 694.08,270.557 
		694.092,270.557 694.092,354.135 694.105,354.135 694.092,373.691 	"/>
</g>
</svg>
