<?xml version="1.0" encoding="utf-8"?>
<!-- Generator: Adobe Illustrator 16.0.0, SVG Export Plug-In . SVG Version: 6.00 Build 0)  -->
<!DOCTYPE svg PUBLIC "-//W3C//DTD SVG 1.1//EN" "http://www.w3.org/Graphics/SVG/1.1/DTD/svg11.dtd">
<svg version="1.1" id="Layer_1" xmlns="http://www.w3.org/2000/svg" xmlns:xlink="http://www.w3.org/1999/xlink" x="0px" y="0px"
	 width="595.28px" height="841.89px" viewBox="0 0 595.28 841.89" style="enable-background:new 0 0 595.28 841.89;"
	 xml:space="preserve">
<style type="text/css">
<![CDATA[
	.st0{fill:#EF3B39;}
	.st1{fill:#FFFFFF;}
	.st2{fill:#6FCCDD;}
]]>
</style>
<g>
	<path class="st0" d="M287,425c-12,1-27-15-28-27c0-15,13-19,22-26c12-8,13-14,21-26c8-14,15-22,32-16c8,2,10,8,16,12c9,6,9,6,22,7
		c10,1,37,3,35,18c0,6-11,12-13,17c-7,12-5,9,1,22c6,12,14,32,2,44c-18,20-35.729-4.614-54.729-4.614
		C330.271,446.386,316,463,305,463C289,462,290,426.667,287,425"/>
</g>
<g>
	<path class="st2" d="M315,395c-7-13,11-30,24-23c20,12,1,32-16,30"/>
</g>
<g>
	<g>
		<path class="st1" d="M295,392.5c-1.667,0-3.333,0-5,0c-3.224,0-3.224,5,0,5c1.667,0,3.333,0,5,0
			C298.224,397.5,298.224,392.5,295,392.5L295,392.5z"/>
	</g>
</g>
<g>
	<g>
		<path class="st1" d="M327.5,358c0-2,0-4,0-6c0-3.224-5-3.224-5,0c0,2,0,4,0,6C322.5,361.224,327.5,361.224,327.5,358L327.5,358z"
			/>
	</g>
</g>
<g>
	<g>
		<path class="st1" d="M360,379.5c3.269-0.002,6.52-0.114,9.665-1.089c3.069-0.952,1.759-5.779-1.33-4.821
			c-2.737,0.849-5.491,0.909-8.335,0.911C356.775,374.502,356.775,379.502,360,379.5L360,379.5z"/>
	</g>
</g>
<g>
	<g>
		<path class="st1" d="M320.589,419.335c-0.83,2.49-1.602,5.036-2.747,7.403c-1.399,2.889,2.912,5.425,4.316,2.523
			c1.338-2.761,2.284-5.692,3.253-8.597C326.434,417.597,321.604,416.292,320.589,419.335L320.589,419.335z"/>
	</g>
</g>
<g>
	<g>
		<path class="st1" d="M351,412.5c2.867,0.06,5.355,1.12,7.738,2.659c2.718,1.755,5.222-2.575,2.523-4.317
			c-3.115-2.012-6.532-3.264-10.262-3.341C347.773,407.433,347.78,412.433,351,412.5L351,412.5z"/>
	</g>
</g>
</svg>
