<?xml version="1.0" encoding="utf-8"?>
<!-- Generator: Adobe Illustrator 16.0.0, SVG Export Plug-In . SVG Version: 6.00 Build 0)  -->
<!DOCTYPE svg PUBLIC "-//W3C//DTD SVG 1.1//EN" "http://www.w3.org/Graphics/SVG/1.1/DTD/svg11.dtd">
<svg version="1.1" id="Layer_1" xmlns="http://www.w3.org/2000/svg" xmlns:xlink="http://www.w3.org/1999/xlink" x="0px" y="0px"
	 width="235.333px" height="326.998px" viewBox="0 0 235.333 326.998" style="enable-background:new 0 0 235.333 326.998;"
	 xml:space="preserve">
<style type="text/css">
<![CDATA[
	.st0{fill:#488FCD;}
	.st1{fill:#E14658;}
	.st2{display:inline;fill:#F7EC20;}
	.st3{fill:#F47D2B;}
	.st4{fill:#F7EC20;}
	.st5{display:inline;fill:#CC4458;}
	.st6{display:inline;fill:#A83E97;}
	.st7{display:none;}
	.st8{fill:#A83E97;}
	.st9{display:inline;fill:#488FCD;}
	.st10{display:inline;fill:#E14658;}
]]>
</style>
<polygon class="st4" points="234.308,247.693 234.3,79.196 156.324,1.218 156.324,79.196 156.329,79.196 156.292,325.665 "/>
<polygon class="st0" points="1.639,107.895 1.639,77.924 1.639,61.677 1.639,1.218 79.614,77.924 79.614,107.895 "/>
<polygon class="st1" points="156.329,325.668 79.614,325.668 78.987,247.693 156.333,247.693 "/>
<polygon class="st1" points="234.308,185.87 79.614,185.87 1.639,107.895 156.324,107.895 "/>
<polygon class="st8" points="79.614,185.87 1.639,107.895 79.614,107.895 "/>
<polygon class="st4" points="79.614,325.668 1.639,247.693 79.614,247.693 "/>
<polygon class="st8" points="156.329,325.668 156.329,247.693 234.308,247.693 "/>
<polygon class="st3" points="156.329,107.885 234.3,185.87 156.329,185.87 "/>
<g class="st7">
	<polygon class="st9" points="-355.887,247.818 -355.887,229.883 -355.887,220.158 -355.887,183.971 -309.216,229.883 
		-309.216,247.818 	"/>
	<polygon class="st10" points="-273.309,378.166 -298.78,378.356 -309.59,331.494 -216.623,331.494 -226.923,342.122 	"/>
	<polygon class="st10" points="-216.623,294.49 -309.216,294.49 -355.887,247.818 -263.294,247.818 	"/>
	<polygon class="st6" points="-309.216,294.49 -355.887,247.818 -309.216,247.818 	"/>
	<polygon class="st2" points="-298.78,378.356 -345.451,342.658 -345.451,331.687 -298.78,331.687 	"/>
	<rect x="-273.495" y="294.49" class="st2" width="46.672" height="37.004"/>
	<polygon class="st10" points="-355.887,183.971 -345.642,183.971 -298.779,229.883 -309.216,229.883 	"/>
	<rect x="-309.216" y="229.883" class="st2" width="10.437" height="64.607"/>
	<polygon class="st2" points="-273.309,247.818 -273.309,229.883 -273.309,220.158 -273.309,183.971 -226.639,229.883 
		-226.639,247.818 	"/>
	<polygon class="st10" points="-273.497,183.971 -263.252,183.971 -216.389,229.883 -226.826,229.883 	"/>
	<polygon class="st9" points="-216.152,333.568 -226.923,342.122 -226.587,229.883 -216.152,229.883 	"/>
	<polygon class="st2" points="-226.587,284.158 -273.495,247.818 -226.823,247.818 	"/>
	<rect x="-298.779" y="284.158" class="st5" width="72.192" height="10.438"/>
	<polygon class="st6" points="-226.823,331.496 -273.495,367.921 -273.495,331.496 	"/>
	<rect x="-298.78" y="367.921" class="st9" width="25.285" height="10.436"/>
	<polygon class="st10" points="-345.451,331.687 -298.779,368.111 -298.779,331.687 	"/>
	<rect x="-298.779" y="331.687" class="st10" width="25.47" height="36.234"/>
</g>
<rect x="156.208" y="185.748" class="st4" width="78" height="61.875"/>
</svg>
